<svg width="148" height="91" viewBox="0 0 148 91" fill="none" xmlns="http://www.w3.org/2000/svg">
<path d="M35.5625 58.5625H12.375V43.9375H35.5625C39.1458 43.9375 42.0625 43.3542 44.3125 42.1875C46.5625 40.9792 48.2083 39.3125 49.25 37.1875C50.2917 35.0625 50.8125 32.6667 50.8125 30C50.8125 27.2917 50.2917 24.7708 49.25 22.4375C48.2083 20.1042 46.5625 18.2292 44.3125 16.8125C42.0625 15.3958 39.1458 14.6875 35.5625 14.6875H18.875V91H0.125V0H35.5625C42.6875 0 48.7917 1.29167 53.875 3.875C59 6.41667 62.9167 9.9375 65.625 14.4375C68.3333 18.9375 69.6875 24.0833 69.6875 29.875C69.6875 35.75 68.3333 40.8333 65.625 45.125C62.9167 49.4167 59 52.7292 53.875 55.0625C48.7917 57.3958 42.6875 58.5625 35.5625 58.5625Z" fill="black"/>
<path d="M88.725 0L107.725 41.5L126.725 0H147.163L117.225 57.875V91H98.225V57.875L68.225 0H88.725Z" fill="black"/>
</svg>
