<svg width="136" height="90" viewBox="0 0 136 90" fill="none" xmlns="http://www.w3.org/2000/svg">
<path d="M4.24003 0.400024H32.4C55.184 0.400024 64.4 10.128 64.4 31.12C64.4 52.112 55.184 61.84 32.4 61.84H26.256C23.824 61.84 22.416 63.12 22.416 65.68V86.16C22.416 88.72 21.136 90 18.576 90H4.24003C1.80802 90 0.400024 88.592 0.400024 86.16V4.36803C0.400024 1.80803 1.68002 0.528023 4.24003 0.400024ZM26.256 39.824H33.168C39.312 39.824 42.384 39.056 42.384 31.12C42.384 23.184 39.312 22.416 33.168 22.416H26.256C23.824 22.416 22.416 23.696 22.416 26.256V35.984C22.416 38.416 23.824 39.824 26.256 39.824Z" fill="black"/>
<path d="M84.563 0.400024C86.739 0.400024 88.147 1.29603 88.915 3.34402L98.387 27.152C98.899 28.304 99.667 28.304 100.179 27.152L109.651 3.34402C110.419 1.29603 111.827 0.400024 114.003 0.400024H132.307C135.251 0.400024 136.531 2.19202 135.251 4.88003L112.339 56.08C112.083 56.592 112.083 57.104 112.083 57.616V86.16C112.083 88.592 110.803 90 108.243 90H90.323C87.891 90 86.483 88.592 86.483 86.16V57.616C86.483 57.104 86.483 56.592 86.227 56.08L63.187 4.88003C61.907 2.19202 63.187 0.400024 66.131 0.400024H84.563Z" fill="black"/>
</svg>
